<?xml version="1.0" standalone="no"?>
<!DOCTYPE svg PUBLIC "-//W3C//DTD SVG 20010904//EN"
 "http://www.w3.org/TR/2001/REC-SVG-20010904/DTD/svg10.dtd">
<svg version="1.0" xmlns="http://www.w3.org/2000/svg"
 width="212.000000pt" height="154.000000pt" viewBox="0 0 212.000000 154.000000"
 preserveAspectRatio="xMidYMid meet">

<g transform="translate(0.000000,154.000000) scale(0.100000,-0.100000)"
fill="#ffffff" stroke="none">
<path d="M990 1241 c0 -4 -29 -23 -65 -40 -70 -35 -121 -88 -154 -162 -22 -47
-27 -89 -11 -89 5 0 14 19 20 41 20 72 72 139 143 184 41 26 246 28 297 4 65
-31 139 -125 155 -196 8 -38 25 -44 25 -10 0 38 -58 143 -98 178 -20 18 -60
43 -89 56 -29 14 -53 29 -53 34 0 5 -38 9 -85 9 -47 0 -85 -4 -85 -9z"/>
<path d="M688 899 c-27 -15 -26 -144 1 -159 12 -6 121 -10 278 -11 l258 -1
-190 -19 c-104 -10 -214 -21 -244 -25 l-54 -6 7 -51 c3 -29 9 -73 12 -99 l7
-47 -64 -3 -64 -3 75 -17 c203 -47 371 -25 575 72 78 38 205 117 235 147 13
14 12 14 -15 0 -16 -8 -44 -18 -61 -21 -31 -7 -31 -6 -30 31 1 33 5 39 31 48
29 10 30 12 33 80 2 57 0 72 -14 82 -23 16 -749 18 -776 2z"/>
<path d="M1556 849 c-17 -17 -18 -19 -3 -19 9 0 17 -7 17 -15 0 -20 6 -19 29
4 18 18 18 19 0 35 -23 19 -19 19 -43 -5z"/>
<path d="M1673 784 c-9 -9 -9 -15 0 -22 17 -14 38 9 23 24 -8 8 -15 7 -23 -2z"/>
<path d="M1621 706 c-8 -10 -8 -16 1 -24 19 -15 40 9 22 25 -9 9 -15 9 -23 -1z"/>
<path d="M1524 599 c-36 -38 -168 -126 -249 -167 -70 -34 -223 -86 -310 -103
-33 -6 -116 -15 -185 -18 l-125 -6 64 -12 c35 -7 66 -15 69 -17 2 -3 10 -34
16 -68 l11 -63 258 -3 257 -2 9 22 c5 13 14 70 21 126 l13 104 76 88 c96 112
150 197 75 119z"/>
<path d="M497 526 c-7 -19 11 -32 24 -19 6 6 5 14 -4 22 -12 9 -16 8 -20 -3z"/>
<path d="M557 444 c-11 -11 3 -24 18 -18 8 4 12 10 9 15 -6 11 -18 12 -27 3z"/>
<path d="M450 422 c0 -7 -9 -16 -19 -20 -19 -7 -19 -8 2 -27 l22 -20 24 23
c19 17 20 22 8 22 -9 0 -21 8 -26 18 -6 10 -11 12 -11 4z"/>
</g>
</svg>
